<?xml version="1.0" encoding="UTF-8"?>
<svg id="Layer_1" xmlns="http://www.w3.org/2000/svg" width="290" height="306" xmlns:xlink="http://www.w3.org/1999/xlink" version="1.1" viewBox="0 0 290 306">
  <!-- Generator: Adobe Illustrator 30.1.0, SVG Export Plug-In . SVG Version: 2.1.1 Build 136)  -->
  <defs>
    <style>
      .st0 {
        fill: none;
      }

      .st1 {
        fill: url(#linear-gradient);
      }

      .st2 {
        clip-path: url(#clippath);
      }
    </style>
    <clipPath id="clippath">
      <rect class="st0" x="79.4" y="94.3" width="133" height="133"/>
    </clipPath>
    <linearGradient id="linear-gradient" x1="145.6" y1="211.7" x2="145.6" y2="78.7" gradientTransform="translate(0 306) scale(1 -1)" gradientUnits="userSpaceOnUse">
      <stop offset="0" stop-color="#c5f4ec"/>
      <stop offset="1" stop-color="#6a4fb4"/>
    </linearGradient>
  </defs>
  <image width="290" height="306" xlink:href="orbit-glow.png"/>
  <g class="st2">
    <path class="st1" d="M119.9,99.4c13.5-5.6,28.4-6.6,42.5-2.8,3.3.9,5.3,4.3,4.4,7.6-.9,3.3-4.3,5.3-7.6,4.4-11.4-3-23.6-2.2-34.5,2.3-10.9,4.5-20.1,12.5-26,22.8-5.9,10.2-8.4,22.2-6.9,33.9,1.5,11.8,6.8,22.7,15.1,31.1,8.3,8.4,19.2,13.9,30.9,15.6,11.7,1.7,23.7-.6,34-6.4,10.3-5.8,18.5-14.8,23.2-25.7,4.7-10.9,5.7-23,2.8-34.5-.8-3.3,1.2-6.7,4.5-7.6,3.3-.8,6.7,1.2,7.6,4.5,3.5,14.1,2.3,29.1-3.5,42.4-5.8,13.4-15.8,24.5-28.5,31.6-12.7,7.1-27.4,9.9-41.9,7.8-14.4-2-27.8-8.8-38-19.2-10.2-10.4-16.8-23.8-18.6-38.3-1.8-14.5,1.1-29.1,8.5-41.7,7.3-12.6,18.6-22.5,32-28ZM141.8,119.4c5.4-.5,10.9.1,16.1,1.8,5.2,1.6,10,4.3,14.2,7.8,4.2,3.5,7.6,7.8,10.1,12.7,2.5,4.8,4,10.1,4.5,15.6.5,5.4-.1,10.9-1.8,16.1-1.6,5.2-4.3,10-7.8,14.2-3.5,4.2-7.8,7.6-12.7,10.1-4.8,2.5-10.1,4-15.6,4.5-5.4.5-10.9-.1-16.1-1.8-5.2-1.6-10-4.3-14.2-7.8-4.2-3.5-7.6-7.8-10.1-12.7-2.5-4.8-4-10.1-4.5-15.6-.5-5.4.1-10.9,1.8-16.1,1.6-5.2,4.3-10,7.8-14.2,3.5-4.2,7.8-7.6,12.7-10.1,4.8-2.5,10.1-4,15.6-4.5ZM154.2,133.1c-3.6-1.2-7.5-1.6-11.3-1.3-3.8.3-7.5,1.4-10.9,3.2-3.4,1.8-6.4,4.2-8.9,7.1-2.5,2.9-4.3,6.3-5.5,9.9s-1.6,7.5-1.3,11.3c.3,3.8,1.4,7.5,3.2,10.9,1.8,3.4,4.2,6.4,7.1,8.9,2.9,2.5,6.3,4.3,9.9,5.5,3.6,1.2,7.5,1.6,11.3,1.3,3.8-.3,7.5-1.4,10.9-3.2,3.4-1.8,6.4-4.2,8.9-7.1,2.5-2.9,4.3-6.3,5.5-9.9,1.2-3.6,1.6-7.5,1.3-11.3-.3-3.8-1.4-7.5-3.2-10.9-1.8-3.4-4.2-6.4-7.1-8.9-2.9-2.5-6.3-4.3-9.9-5.5ZM195.7,94.3c9.2,0,16.6,7.4,16.6,16.6s-7.4,16.6-16.6,16.6-16.6-7.4-16.6-16.6,7.4-16.6,16.6-16.6Z"/>
  </g>
</svg>